<?xml version="1.0" standalone="no"?><svg xmlns="http://www.w3.org/2000/svg" viewBox="0 0 1440 320"><path fill="#3C8DAD" fill-opacity="1" d="M0,192L12,181.3C24,171,48,149,72,122.7C96,96,120,64,144,90.7C168,117,192,203,216,208C240,213,264,139,288,128C312,117,336,171,360,181.3C384,192,408,160,432,170.7C456,181,480,235,504,213.3C528,192,552,96,576,80C600,64,624,128,648,176C672,224,696,256,720,256C744,256,768,224,792,208C816,192,840,192,864,186.7C888,181,912,171,936,181.3C960,192,984,224,1008,240C1032,256,1056,256,1080,245.3C1104,235,1128,213,1152,181.3C1176,149,1200,107,1224,96C1248,85,1272,107,1296,106.7C1320,107,1344,85,1368,85.3C1392,85,1416,107,1428,117.3L1440,128L1440,320L1428,320C1416,320,1392,320,1368,320C1344,320,1320,320,1296,320C1272,320,1248,320,1224,320C1200,320,1176,320,1152,320C1128,320,1104,320,1080,320C1056,320,1032,320,1008,320C984,320,960,320,936,320C912,320,888,320,864,320C840,320,816,320,792,320C768,320,744,320,720,320C696,320,672,320,648,320C624,320,600,320,576,320C552,320,528,320,504,320C480,320,456,320,432,320C408,320,384,320,360,320C336,320,312,320,288,320C264,320,240,320,216,320C192,320,168,320,144,320C120,320,96,320,72,320C48,320,24,320,12,320L0,320Z"></path></svg>