<?xml version="1.0" standalone="no"?><svg xmlns="http://www.w3.org/2000/svg" viewBox="0 0 1440 320"><path fill="#0099ff" fill-opacity="1" d="M0,160L0,224L65.5,224L65.5,32L130.9,32L130.9,128L196.4,128L196.4,160L261.8,160L261.8,224L327.3,224L327.3,224L392.7,224L392.7,128L458.2,128L458.2,64L523.6,64L523.6,128L589.1,128L589.1,160L654.5,160L654.5,256L720,256L720,160L785.5,160L785.5,224L850.9,224L850.9,160L916.4,160L916.4,224L981.8,224L981.8,160L1047.3,160L1047.3,192L1112.7,192L1112.7,192L1178.2,192L1178.2,192L1243.6,192L1243.6,192L1309.1,192L1309.1,64L1374.5,64L1374.5,224L1440,224L1440,320L1374.5,320L1374.5,320L1309.1,320L1309.1,320L1243.6,320L1243.6,320L1178.2,320L1178.2,320L1112.7,320L1112.7,320L1047.3,320L1047.3,320L981.8,320L981.8,320L916.4,320L916.4,320L850.9,320L850.9,320L785.5,320L785.5,320L720,320L720,320L654.5,320L654.5,320L589.1,320L589.1,320L523.6,320L523.6,320L458.2,320L458.2,320L392.7,320L392.7,320L327.3,320L327.3,320L261.8,320L261.8,320L196.4,320L196.4,320L130.9,320L130.9,320L65.5,320L65.5,320L0,320L0,320Z"></path></svg>