<?xml version="1.0" standalone="no"?><svg xmlns="http://www.w3.org/2000/svg" viewBox="0 0 1440 320"><path fill="#3C8DAD" fill-opacity="1" d="M0,96L18.5,85.3C36.9,75,74,53,111,85.3C147.7,117,185,203,222,202.7C258.5,203,295,117,332,101.3C369.2,85,406,139,443,165.3C480,192,517,192,554,176C590.8,160,628,128,665,117.3C701.5,107,738,117,775,133.3C812.3,149,849,171,886,186.7C923.1,203,960,213,997,197.3C1033.8,181,1071,139,1108,122.7C1144.6,107,1182,117,1218,106.7C1255.4,96,1292,64,1329,58.7C1366.2,53,1403,75,1422,85.3L1440,96L1440,320L1421.5,320C1403.1,320,1366,320,1329,320C1292.3,320,1255,320,1218,320C1181.5,320,1145,320,1108,320C1070.8,320,1034,320,997,320C960,320,923,320,886,320C849.2,320,812,320,775,320C738.5,320,702,320,665,320C627.7,320,591,320,554,320C516.9,320,480,320,443,320C406.2,320,369,320,332,320C295.4,320,258,320,222,320C184.6,320,148,320,111,320C73.8,320,37,320,18,320L0,320Z"></path></svg>